name Walk4.mot
datacolumns 19
datarows 25
range 1.65000000 1.77000000
endheader

                time	   L_ground_force_vx	   L_ground_force_vy	   L_ground_force_vz	   L_ground_force_px	   L_ground_force_py	   L_ground_force_pz	   R_ground_force_vx	   R_ground_force_vy	   R_ground_force_vz	   R_ground_force_px	   R_ground_force_py	   R_ground_force_pz	   L_ground_torque_x	   L_ground_torque_y	   L_ground_torque_z	   R_ground_torque_x	   R_ground_torque_y	   R_ground_torque_z	
          1.65000000	          6.83615934	         47.90747922	         -0.23067312	          0.00699360	          0.00000000	          0.00006283	         -0.00000000	          0.00000000	          0.00000000	          0.00000000	          0.00000000	          0.00000000	          0.00000000	         -0.14132699	          0.00000000	          0.00000000	         -0.00000000	          0.00000000	
          1.65500000	          7.22839395	         71.77489617	         -0.55408656	         -0.11210342	          0.00000000	         -0.01362927	         -0.00000000	          0.00000000	          0.00000000	          0.00000000	          0.00000000	          0.00000000	          0.00000000	         -0.18800601	          0.00000000	          0.00000000	         -0.00000000	          0.00000000	
          1.66000000	          6.57998017	         99.19256704	         -1.05585829	         -0.22337961	          0.00000000	         -0.02641017	         -0.00000000	          0.00000000	          0.00000000	          0.00000000	          0.00000000	          0.00000000	          0.00000000	         -0.23016925	          0.00000000	          0.00000000	         -0.00000000	          0.00000000	
          1.66500000	          4.48718725	        129.04742388	         -1.75675625	         -0.32085941	          0.00000000	         -0.03757537	         -0.00000000	          0.00000000	          0.00000000	          0.00000000	          0.00000000	          0.00000000	          0.00000000	         -0.26202124	          0.00000000	          0.00000000	          0.00000000	          0.00000000	
          1.67000000	          0.65612145	        159.95412510	         -2.63600201	         -0.40160461	          0.00000000	         -0.04677669	         -0.00000000	          0.00000000	         -0.00000000	          0.00000000	          0.00000000	         -0.00000000	          0.00000000	         -0.27820464	          0.00000000	          0.00000000	          0.00000000	          0.00000000	
          1.67500000	         -4.92273068	        190.82694404	         -3.59652620	         -0.46506535	          0.00000000	         -0.05396249	         -0.00000000	         -0.00000000	         -0.00000000	         -0.00000000	          0.00000000	         -0.00000000	          0.00000000	         -0.27511972	          0.00000000	          0.00000000	          0.00000000	          0.00000000	
          1.68000000	        -11.91567078	        221.01377220	         -4.47748446	         -0.51226707	          0.00000000	         -0.05928042	         -0.00000000	         -0.00000000	         -0.00000000	         -0.00000000	          0.00000000	         -0.00000000	          0.00000000	         -0.25207320	          0.00000000	          0.00000000	          0.00000000	          0.00000000	
          1.68500000	        -19.71755599	        250.05353893	         -5.10652126	         -0.54516836	          0.00000000	         -0.06299457	         -0.00000000	         -0.00000001	         -0.00000000	         -0.00000000	          0.00000000	         -0.00000000	          0.00000000	         -0.21187799	          0.00000000	          0.00000000	          0.00000000	          0.00000000	
          1.69000000	        -27.55833137	        277.53200978	         -5.34441846	         -0.56616646	          0.00000000	         -0.06541832	          0.00000000	         -0.00000001	         -0.00000000	         -0.00000000	          0.00000000	         -0.00000000	          0.00000000	         -0.16104051	          0.00000000	          0.00000000	          0.00000000	          0.00000000	
          1.69500000	        -34.64882737	        303.11148771	         -5.10845323	         -0.57773835	          0.00000000	         -0.06686282	          0.00000000	         -0.00000002	         -0.00000000	         -0.00000000	          0.00000000	         -0.00000000	          0.00000000	         -0.10929419	          0.00000000	          0.00000000	          0.00000000	          0.00000000	
          1.70000000	        -40.39384360	        326.59380048	         -4.36592485	         -0.58220315	          0.00000000	         -0.06760742	          0.00000000	         -0.00000003	         -0.00000000	         -0.00000000	          0.00000000	         -0.00000000	          0.00000000	         -0.06744214	          0.00000000	          0.00000000	          0.00000000	          0.00000000	
          1.70500000	        -44.60327473	        347.93232706	         -3.10038199	         -0.58158361	          0.00000000	         -0.06788796	          0.00000000	         -0.00000004	         -0.00000000	         -0.00000000	          0.00000000	         -0.00000000	          0.00000000	         -0.04414853	          0.00000000	          0.00000000	          0.00000000	          0.00000000	
          1.71000000	        -47.54312245	        367.22150676	         -1.29641310	         -0.57754327	          0.00000000	         -0.06789348	          0.00000001	         -0.00000005	         -0.00000001	         -0.00000000	          0.00000000	         -0.00000000	          0.00000000	         -0.04342790	          0.00000000	          0.00000000	          0.00000000	          0.00000000	
          1.71500000	        -49.75566284	        384.70751959	          1.03400406	         -0.57138269	          0.00000000	         -0.06776940	          0.00000001	         -0.00000006	         -0.00000001	         -0.00000000	          0.00000000	         -0.00000000	          0.00000000	         -0.06409121	          0.00000000	          0.00000000	          0.00000000	          0.00000000	
          1.72000000	        -51.79474292	        400.80650090	          3.82610858	         -0.56407834	          0.00000000	         -0.06761849	          0.00000001	         -0.00000007	         -0.00000001	         -0.00000000	          0.00000000	         -0.00000000	          0.00000000	         -0.10038262	          0.00000000	          0.00000000	          0.00000000	          0.00000000	
          1.72500000	        -54.05450553	        416.07074156	          6.96037246	         -0.55634095	          0.00000000	         -0.06750382	          0.00000001	         -0.00000007	         -0.00000001	         -0.00000000	          0.00000000	         -0.00000000	          0.00000000	         -0.14242031	          0.00000000	          0.00000000	          0.00000000	          0.00000000	
          1.73000000	        -56.73130075	        431.09648495	         10.27423098	         -0.54867577	          0.00000000	         -0.06745332	          0.00000001	         -0.00000007	         -0.00000001	         -0.00000000	          0.00000000	         -0.00000000	          0.00000000	         -0.17692420	          0.00000000	          0.00000000	          0.00000000	          0.00000000	
          1.73500000	        -59.86217057	        446.43469815	         13.58430200	         -0.54142487	          0.00000000	         -0.06746844	          0.00000002	         -0.00000006	         -0.00000000	         -0.00000000	          0.00000000	         -0.00000000	          0.00000000	         -0.18959815	          0.00000000	          0.00000000	         -0.00000000	          0.00000000	
          1.74000000	        -63.38232740	        462.55390138	         16.71585274	         -0.53479967	          0.00000000	         -0.06753571	          0.00000002	         -0.00000004	          0.00000000	         -0.00000000	          0.00000000	          0.00000000	          0.00000000	         -0.16880218	          0.00000000	          0.00000000	         -0.00000000	          0.00000000	
          1.74500000	        -67.18046266	        479.83395086	         19.53672906	         -0.52891226	          0.00000000	         -0.06763527	          0.00000002	          0.00000000	          0.00000001	          0.00000000	          0.00000000	          0.00000000	          0.00000000	         -0.10869912	          0.00000000	          0.00000000	         -0.00000000	          0.00000000	
          1.75000000	        -71.13380869	        498.56035696	         21.98389593	         -0.52380068	          0.00000000	         -0.06774875	          0.00000001	          0.00000007	          0.00000002	          0.00000000	          0.00000000	          0.00000000	          0.00000000	         -0.01147212	          0.00000000	          0.00000000	         -0.00000001	          0.00000000	
          1.75500000	        -75.11725940	        518.91480950	         24.06438781	         -0.51944845	          0.00000000	         -0.06786286	          0.00000001	          0.00000016	          0.00000003	          0.00000000	          0.00000000	          0.00000000	          0.00000000	          0.11415974	          0.00000000	          0.00000000	         -0.00000001	          0.00000000	
          1.76000000	        -79.00676219	        540.95432680	         25.82913135	         -0.51580356	          0.00000000	         -0.06796785	         -0.00000000	          0.00000028	          0.00000004	          0.00000000	          0.00000000	          0.00000000	          0.00000000	          0.25731904	          0.00000000	          0.00000000	         -0.00000002	          0.00000000	
          1.76500000	        -82.68878742	        564.58664980	         27.33831213	         -0.51279461	          0.00000000	         -0.06805665	         -0.00000002	          0.00000043	          0.00000006	          0.00000000	          0.00000000	          0.00000000	          0.00000000	          0.40873535	          0.00000000	          0.00000000	         -0.00000002	          0.00000000	
          1.77000000	        -86.07050800	        589.56572683	         28.63380944	         -0.51034093	          0.00000000	         -0.06812480	         -0.00000004	          0.00000061	          0.00000008	          0.00000000	          0.00000000	          0.00000000	          0.00000000	          0.56257435	          0.00000000	          0.00000000	         -0.00000003	          0.00000000	
